<svg width="48" height="48" viewBox="0 0 48 48" fill="none" xmlns="http://www.w3.org/2000/svg">
<path d="M31.3232 8.50201L7.07523 23.872L4.99023 20.582V17.747C4.99023 16.715 5.51323 15.753 6.37923 15.191L20.4742 6.04501C22.6212 4.65201 25.3882 4.65101 27.5352 6.04401L31.3232 8.50201Z" fill="url(#paint0_linear_1689_290)"/>
<path d="M27.3172 5.91101C27.3902 5.95401 27.4622 5.99901 27.5342 6.04601L38.5342 13.182L11.2592 30.47L7.07422 23.867L27.0912 11.154C28.9882 9.95001 29.0712 7.24101 27.3172 5.91101Z" fill="url(#paint1_linear_1689_290)"/>
<path d="M27.3172 5.91101C27.3902 5.95401 27.4622 5.99901 27.5342 6.04601L38.5342 13.182L11.2592 30.47L7.07422 23.867L27.0912 11.154C28.9882 9.95001 29.0712 7.24101 27.3172 5.91101Z" fill="url(#paint2_linear_1689_290)"/>
<path d="M22.1418 33.771L11.2598 30.47L34.3958 15.804C36.3448 14.569 36.3398 11.724 34.3868 10.496L34.2828 10.431L34.5828 10.617L41.6238 15.185C42.4898 15.747 43.0128 16.709 43.0128 17.741V20.485L22.1418 33.771Z" fill="url(#paint3_linear_1689_290)"/>
<path d="M22.1418 33.771L11.2598 30.47L34.3958 15.804C36.3448 14.569 36.3398 11.724 34.3868 10.496L34.2828 10.431L34.5828 10.617L41.6238 15.185C42.4898 15.747 43.0128 16.709 43.0128 17.741V20.485L22.1418 33.771Z" fill="url(#paint4_linear_1689_290)"/>
<path d="M27.5348 6.04499C25.3868 4.65199 22.6208 4.65199 20.4728 6.04599L6.37777 15.192C5.51177 15.754 4.98877 16.716 4.98877 17.748V17.887C5.02277 18.923 5.56777 19.878 6.44877 20.433L23.9748 31.482L41.5448 20.45C42.4578 19.877 43.0108 18.875 43.0108 17.798V20.486L43.0118 17.742C43.0118 16.71 42.4888 15.748 41.6228 15.186L27.5348 6.04499Z" fill="url(#paint5_radial_1689_290)"/>
<path d="M20.8861 43H36.4091C40.0551 43 43.0111 40.044 43.0111 36.398V17.797C43.0111 18.874 42.4571 19.876 41.5451 20.449L18.4551 34.947C17.2091 35.729 16.4541 37.097 16.4541 38.567C16.4541 41.016 18.4381 43 20.8861 43Z" fill="url(#paint6_linear_1689_290)"/>
<path d="M20.8861 43H36.4091C40.0551 43 43.0111 40.044 43.0111 36.398V17.797C43.0111 18.874 42.4571 19.876 41.5451 20.449L18.4551 34.947C17.2091 35.729 16.4541 37.097 16.4541 38.567C16.4541 41.016 18.4381 43 20.8861 43Z" fill="url(#paint7_radial_1689_290)"/>
<path d="M20.8861 43H36.4091C40.0551 43 43.0111 40.044 43.0111 36.398V17.797C43.0111 18.874 42.4571 19.876 41.5451 20.449L18.4551 34.947C17.2091 35.729 16.4541 37.097 16.4541 38.567C16.4541 41.016 18.4381 43 20.8861 43Z" fill="url(#paint8_radial_1689_290)"/>
<path d="M27.1978 42.999H11.5888C7.94282 42.999 4.98682 40.043 4.98682 36.397V17.783C4.98682 18.859 5.53882 19.859 6.44782 20.432L29.5148 34.975C30.7778 35.771 31.5438 37.16 31.5438 38.653C31.5438 41.053 29.5978 42.999 27.1978 42.999Z" fill="url(#paint9_radial_1689_290)"/>
<path d="M27.1978 42.999H11.5888C7.94282 42.999 4.98682 40.043 4.98682 36.397V17.783C4.98682 18.859 5.53882 19.859 6.44782 20.432L29.5148 34.975C30.7778 35.771 31.5438 37.16 31.5438 38.653C31.5438 41.053 29.5978 42.999 27.1978 42.999Z" fill="url(#paint10_linear_1689_290)"/>
<path d="M11.2821 36.236C9.88414 36.236 8.73714 35.799 7.84014 34.924C6.94314 34.05 6.49414 32.909 6.49414 31.501C6.49414 30.015 6.94914 28.812 7.86014 27.894C8.77114 26.976 9.96314 26.517 11.4371 26.517C12.8301 26.517 13.9631 26.956 14.8381 27.835C15.7171 28.714 16.1571 29.872 16.1571 31.31C16.1571 32.788 15.7011 33.979 14.7911 34.884C13.8851 35.786 12.7161 36.236 11.2821 36.236ZM11.3231 34.381C12.0851 34.381 12.6981 34.121 13.1621 33.601C13.6261 33.081 13.8581 32.357 13.8581 31.43C13.8581 30.464 13.6321 29.712 13.1821 29.174C12.7311 28.636 12.1291 28.368 11.3771 28.368C10.6021 28.368 9.97714 28.646 9.50414 29.201C9.03114 29.752 8.79414 30.482 8.79414 31.391C8.79414 32.314 9.03114 33.044 9.50414 33.581C9.97714 34.114 10.5831 34.381 11.3231 34.381Z" fill="white"/>
<path d="M6.453 23H16.547C18.454 23 20 24.546 20 26.453V36.547C20 38.454 18.454 40 16.547 40H6.453C4.546 40 3 38.454 3 36.547V26.453C3 24.546 4.546 23 6.453 23Z" fill="url(#paint11_radial_1689_290)"/>
<path d="M6.453 23H16.547C18.454 23 20 24.546 20 26.453V36.547C20 38.454 18.454 40 16.547 40H6.453C4.546 40 3 38.454 3 36.547V26.453C3 24.546 4.546 23 6.453 23Z" fill="url(#paint12_radial_1689_290)"/>
<path d="M11.4528 36.518C10.0528 36.518 8.90276 36.066 8.00376 35.163C7.10476 34.26 6.65576 33.081 6.65576 31.626C6.65576 30.09 7.11176 28.848 8.02476 27.9C8.93776 26.951 10.1318 26.477 11.6088 26.477C13.0048 26.477 14.1408 26.931 15.0168 27.839C15.8978 28.747 16.3378 29.944 16.3378 31.43C16.3378 32.957 15.8818 34.188 14.9688 35.122C14.0608 36.053 12.8888 36.518 11.4528 36.518ZM11.4928 34.601C12.2558 34.601 12.8708 34.332 13.3358 33.795C13.8008 33.257 14.0338 32.51 14.0338 31.552C14.0338 30.554 13.8078 29.777 13.3568 29.221C12.9048 28.665 12.3018 28.388 11.5478 28.388C10.7708 28.388 10.1448 28.675 9.67076 29.249C9.19676 29.818 8.95976 30.572 8.95976 31.512C8.95976 32.465 9.19676 33.219 9.67076 33.775C10.1448 34.326 10.7518 34.601 11.4928 34.601Z" fill="white"/>
<defs>
<linearGradient id="paint0_linear_1689_290" x1="7.20023" y1="19.028" x2="29.3252" y2="5.318" gradientUnits="userSpaceOnUse">
<stop stop-color="#20A7FA"/>
<stop offset="0.4" stop-color="#3BD5FF"/>
<stop offset="1" stop-color="#C4B0FF"/>
</linearGradient>
<linearGradient id="paint1_linear_1689_290" x1="17.3402" y1="27.263" x2="29.6552" y2="7.55301" gradientUnits="userSpaceOnUse">
<stop stop-color="#165AD9"/>
<stop offset="0.501" stop-color="#1880E5"/>
<stop offset="1" stop-color="#8587FF"/>
</linearGradient>
<linearGradient id="paint2_linear_1689_290" x1="28.0652" y1="24.413" x2="14.4002" y2="13.268" gradientUnits="userSpaceOnUse">
<stop offset="0.237" stop-color="#448AFF" stop-opacity="0"/>
<stop offset="0.792" stop-color="#0032B1" stop-opacity="0.2"/>
</linearGradient>
<linearGradient id="paint3_linear_1689_290" x1="21.0148" y1="26.738" x2="42.6298" y2="12.908" gradientUnits="userSpaceOnUse">
<stop stop-color="#1A43A6"/>
<stop offset="0.492" stop-color="#2052CB"/>
<stop offset="1" stop-color="#5F20CB"/>
</linearGradient>
<linearGradient id="paint4_linear_1689_290" x1="32.4598" y1="28.013" x2="19.3198" y2="16.643" gradientUnits="userSpaceOnUse">
<stop stop-color="#0045B9" stop-opacity="0"/>
<stop offset="0.67" stop-color="#0D1F69" stop-opacity="0.2"/>
</linearGradient>
<radialGradient id="paint5_radial_1689_290" cx="0" cy="0" r="1" gradientUnits="userSpaceOnUse" gradientTransform="translate(23.8674 5.68772) rotate(-90) scale(28.3528 30.6875)">
<stop offset="0.568" stop-color="#275FF0" stop-opacity="0"/>
<stop offset="0.992" stop-color="#002177"/>
</radialGradient>
<linearGradient id="paint6_linear_1689_290" x1="43.0051" y1="30.398" x2="23.8501" y2="30.398" gradientUnits="userSpaceOnUse">
<stop stop-color="#4DC4FF"/>
<stop offset="0.196" stop-color="#0FAFFF"/>
</linearGradient>
<radialGradient id="paint7_radial_1689_290" cx="0" cy="0" r="1" gradientUnits="userSpaceOnUse" gradientTransform="translate(28.4266 38.6616) rotate(-45) scale(12.1506)">
<stop offset="0.26" stop-color="#0060D1" stop-opacity="0.4"/>
<stop offset="0.908" stop-color="#0383F1" stop-opacity="0"/>
</radialGradient>
<radialGradient id="paint8_radial_1689_290" cx="0" cy="0" r="1" gradientUnits="userSpaceOnUse" gradientTransform="translate(9.95743 47.621) rotate(-52.6577) scale(41.2455 37.2964)">
<stop offset="0.732" stop-color="#F4A7F7" stop-opacity="0"/>
<stop offset="1" stop-color="#F4A7F7" stop-opacity="0.502"/>
</radialGradient>
<radialGradient id="paint9_radial_1689_290" cx="0" cy="0" r="1" gradientUnits="userSpaceOnUse" gradientTransform="translate(18.4638 27.8871) rotate(123.339) scale(21.7621 56.4752)">
<stop stop-color="#49DEFF"/>
<stop offset="0.724" stop-color="#29C3FF"/>
</radialGradient>
<linearGradient id="paint10_linear_1689_290" x1="2.29482" y1="30.398" x2="20.7448" y2="30.383" gradientUnits="userSpaceOnUse">
<stop offset="0.206" stop-color="#6CE0FF"/>
<stop offset="0.535" stop-color="#50D5FF" stop-opacity="0"/>
</linearGradient>
<radialGradient id="paint11_radial_1689_290" cx="0" cy="0" r="1" gradientUnits="userSpaceOnUse" gradientTransform="translate(2.26691 23.6546) rotate(46.924) scale(22.4308)">
<stop offset="0.039" stop-color="#0091FF"/>
<stop offset="0.919" stop-color="#183DAD"/>
</radialGradient>
<radialGradient id="paint12_radial_1689_290" cx="0" cy="0" r="1" gradientUnits="userSpaceOnUse" gradientTransform="translate(11.4967 33.42) rotate(90) scale(11.928 13.7585)">
<stop offset="0.558" stop-color="#0FA5F7" stop-opacity="0"/>
<stop offset="1" stop-color="#74C6FF" stop-opacity="0.502"/>
</radialGradient>
</defs>
</svg>
