<svg width="24" height="24" viewBox="0 0 24 24" fill="none" xmlns="http://www.w3.org/2000/svg">
<path d="M12.0002 2C6.47774 2 2.00024 6.4775 2.00024 12C2.00024 17.5225 6.47774 22 12.0002 22C17.5227 22 22.0002 17.5225 22.0002 12C22.0002 6.4775 17.5227 2 12.0002 2ZM13.1786 12C13.1786 12 15.7944 14.6158 15.9227 14.7442C16.2486 15.07 16.2486 15.5975 15.9227 15.9225C15.5969 16.2483 15.0694 16.2483 14.7444 15.9225C14.6161 15.795 12.0002 13.1783 12.0002 13.1783C12.0002 13.1783 9.38441 15.7942 9.25608 15.9225C8.93024 16.2483 8.40274 16.2483 8.07774 15.9225C7.75191 15.5967 7.75191 15.0692 8.07774 14.7442C8.20524 14.6158 10.8219 12 10.8219 12C10.8219 12 8.20608 9.38417 8.07774 9.25583C7.75191 8.93 7.75191 8.4025 8.07774 8.0775C8.40358 7.75167 8.93108 7.75167 9.25608 8.0775C9.38441 8.205 12.0002 10.8217 12.0002 10.8217C12.0002 10.8217 14.6161 8.20583 14.7444 8.0775C15.0702 7.75167 15.5977 7.75167 15.9227 8.0775C16.2486 8.40333 16.2486 8.93083 15.9227 9.25583C15.7952 9.38417 13.1786 12 13.1786 12Z" fill="#767676"/>
</svg>
