<svg width="24" height="24" viewBox="0 0 24 24" fill="none" xmlns="http://www.w3.org/2000/svg">
<path d="M7.05637 5.50067C6.74804 5.50106 6.44682 5.59339 6.1912 5.76587C5.93557 5.93836 5.73715 6.18317 5.62126 6.46903C5.50538 6.75489 5.4773 7.06882 5.54062 7.37072C5.60394 7.67263 5.75577 7.94879 5.97673 8.16394L10.3074 12.4967L5.97673 16.8294C5.82792 16.9723 5.70911 17.1436 5.62726 17.333C5.54542 17.5225 5.50218 17.7264 5.50008 17.9328C5.49798 18.1391 5.53707 18.3439 5.61504 18.535C5.69302 18.726 5.80832 18.8996 5.9542 19.0456C6.10007 19.1915 6.27359 19.3069 6.46458 19.3849C6.65557 19.4629 6.86021 19.502 7.06649 19.4999C7.27278 19.4978 7.47658 19.4546 7.66594 19.3727C7.85531 19.2908 8.02645 19.1719 8.16932 19.023L12.5 14.6903L16.8307 19.023C16.9735 19.1719 17.1447 19.2908 17.334 19.3727C17.5234 19.4546 17.7272 19.4978 17.9335 19.4999C18.1398 19.502 18.3444 19.4629 18.5354 19.3849C18.7264 19.3069 18.8999 19.1915 19.0458 19.0456C19.1917 18.8996 19.307 18.726 19.385 18.535C19.4629 18.3439 19.502 18.1391 19.4999 17.9328C19.4978 17.7264 19.4546 17.5225 19.3727 17.333C19.2909 17.1436 19.1721 16.9723 19.0233 16.8294L14.6926 12.4967L19.0233 8.16394C19.2473 7.94604 19.4004 7.6655 19.4623 7.35909C19.5243 7.05268 19.4923 6.73469 19.3705 6.44679C19.2487 6.15889 19.0428 5.91451 18.7798 5.74569C18.5169 5.57686 18.209 5.49146 17.8967 5.50067C17.4938 5.51268 17.1115 5.68112 16.8307 5.97031L12.5 10.303L8.16932 5.97031C8.02465 5.82152 7.8516 5.70329 7.66043 5.62262C7.46926 5.54195 7.26385 5.50048 7.05637 5.50067Z" fill="#767676"/>
</svg>
