<svg width="24" height="24" viewBox="0 0 24 24" fill="none" xmlns="http://www.w3.org/2000/svg">
<path d="M9.783 3.50002C10.4758 3.17116 11.2331 3.00055 12 3.00055C12.7669 3.00055 13.5242 3.17116 14.217 3.50002L20.908 6.63702C22.364 7.31902 22.364 9.68102 20.908 10.363L14.218 13.5C13.5251 13.829 12.7676 13.9997 12.0005 13.9997C11.2334 13.9997 10.4759 13.829 9.783 13.5L3.092 10.363C1.636 9.68102 1.636 7.31902 3.092 6.63702L6 5.27302M2 8.50002V14M12 21C10.204 21 7.854 19.879 6.385 19.066C5.504 18.577 5 17.633 5 16.626V11.5M19 11.5V16.625C19 17.633 18.497 18.577 17.615 19.065C17.0055 19.4037 16.3816 19.7157 15.745 20" stroke="#354ED4" stroke-width="2" stroke-linecap="round"/>
</svg>
