<svg width="24" height="24" viewBox="0 0 24 24" fill="none" xmlns="http://www.w3.org/2000/svg">
<path d="M11.1731 5.25H9.01923C8.52425 5.25 8.03411 5.35185 7.57681 5.54972C7.1195 5.7476 6.70399 6.03764 6.35398 6.40327C6.00398 6.7689 5.72634 7.20296 5.53692 7.68068C5.34749 8.1584 5.25 8.67042 5.25 9.1875C5.25 9.70458 5.34749 10.2166 5.53692 10.6943C5.72634 11.172 6.00398 11.6061 6.35398 11.9717C6.70399 12.3374 7.1195 12.6274 7.57681 12.8253C8.03411 13.0232 8.52425 13.125 9.01923 13.125H11.1731V16.5H6.32692V18.75H11.1731V21H13.3269V18.75H15.4808C16.4804 18.75 17.4392 18.3352 18.146 17.5967C18.8529 16.8583 19.25 15.8568 19.25 14.8125C19.25 13.7682 18.8529 12.7667 18.146 12.0283C17.4392 11.2898 16.4804 10.875 15.4808 10.875H13.3269V7.5H18.1731V5.25H13.3269V3H11.1731V5.25ZM13.3269 13.125H15.4808C15.9092 13.125 16.3201 13.3028 16.623 13.6193C16.926 13.9357 17.0962 14.3649 17.0962 14.8125C17.0962 15.2601 16.926 15.6893 16.623 16.0057C16.3201 16.3222 15.9092 16.5 15.4808 16.5H13.3269V13.125ZM11.1731 10.875H9.01923C8.8071 10.875 8.59704 10.8314 8.40105 10.7465C8.20506 10.6617 8.02698 10.5374 7.87698 10.3807C7.72698 10.224 7.60799 10.038 7.52681 9.83328C7.44563 9.62854 7.40385 9.40911 7.40385 9.1875C7.40385 8.96589 7.44563 8.74646 7.52681 8.54172C7.60799 8.33698 7.72698 8.15096 7.87698 7.99426C8.02698 7.83756 8.20506 7.71326 8.40105 7.62845C8.59704 7.54365 8.8071 7.5 9.01923 7.5H11.1731V10.875Z" fill="#354ED4"/>
</svg>
