<svg width="24" height="24" viewBox="0 0 24 24" fill="none" xmlns="http://www.w3.org/2000/svg">
<path d="M21.6871 20.1945L17.5147 16.0204C18.7657 14.3902 19.3498 12.3452 19.1484 10.3002C18.9471 8.25526 17.9753 6.36344 16.4303 5.00854C14.8853 3.65364 12.8828 2.93712 10.8289 3.00433C8.77507 3.07155 6.82367 3.91746 5.37059 5.37048C3.91751 6.82349 3.07155 8.77481 3.00434 10.8286C2.93712 12.8824 3.65367 14.8848 5.00863 16.4297C6.36359 17.9746 8.25551 18.9463 10.3006 19.1477C12.3457 19.349 14.3908 18.765 16.021 17.514L20.197 21.6907C20.2951 21.7887 20.4115 21.8665 20.5397 21.9196C20.6678 21.9727 20.8052 22 20.9438 22C21.0825 22 21.2199 21.9727 21.348 21.9196C21.4762 21.8665 21.5926 21.7887 21.6907 21.6907C21.7887 21.5926 21.8665 21.4762 21.9196 21.3481C21.9727 21.2199 22 21.0826 22 20.9439C22 20.8052 21.9727 20.6679 21.9196 20.5397C21.8665 20.4116 21.7887 20.2952 21.6907 20.1971L21.6871 20.1945ZM5.12637 11.1005C5.12637 9.9189 5.47677 8.76385 6.13326 7.78139C6.78974 6.79894 7.72283 6.03321 8.81453 5.58103C9.90622 5.12886 11.1075 5.01055 12.2664 5.24107C13.4254 5.47158 14.4899 6.04057 15.3255 6.87608C16.161 7.71159 16.73 8.7761 16.9606 9.93498C17.1911 11.0939 17.0728 12.2951 16.6206 13.3867C16.1684 14.4784 15.4026 15.4114 14.4201 16.0679C13.4376 16.7243 12.2825 17.0747 11.1009 17.0747C9.51683 17.0731 7.99814 16.4431 6.87806 15.3231C5.75798 14.2031 5.128 12.6845 5.12637 11.1005Z" fill="#767676"/>
</svg>
