<svg width="24" height="24" viewBox="0 0 24 24" fill="none" xmlns="http://www.w3.org/2000/svg">
<path d="M20.1818 2H3.81818C2.81364 2 2 2.81364 2 3.81818V20.1818C2 21.1864 2.81364 22 3.81818 22H20.1818C21.1864 22 22 21.1864 22 20.1818V3.81818C22 2.81364 21.1864 2 20.1818 2ZM8.14273 15.8573L6.21455 17.7855C4.73364 16.3045 3.81818 14.2591 3.81818 12C3.81818 9.74091 4.73364 7.69545 6.21455 6.21455L8.14273 8.14273C7.15636 9.13 6.54545 10.4936 6.54545 12C6.54545 13.5064 7.15636 14.87 8.14273 15.8573ZM12 13.8182C10.9955 13.8182 10.1818 13.0045 10.1818 12C10.1818 10.9955 10.9955 10.1818 12 10.1818C13.0045 10.1818 13.8182 10.9955 13.8182 12C13.8182 13.0045 13.0045 13.8182 12 13.8182ZM17.7855 17.7855L15.8573 15.8573C16.8436 14.87 17.4545 13.5064 17.4545 12C17.4545 10.4936 16.8436 9.13 15.8573 8.14273L17.7855 6.21455C19.2664 7.69545 20.1818 9.74091 20.1818 12C20.1818 14.2591 19.2664 16.3045 17.7855 17.7855Z" fill="#FD9738"/>
</svg>
