<svg width="81" height="32" viewBox="0 0 81 32" fill="none" xmlns="http://www.w3.org/2000/svg">
<g clip-path="url(#clip0_29752_583)">
<path d="M2.8173 12H0.958282V2.66666H2.8173L6.0573 7.18666L9.35044 2.66666H11.1431V12H9.28405V5.70666L6.85405 9.29332H5.30041L2.8173 5.70666V12ZM17.3068 12H15.4611V8.47999L12.2078 6.14666V2.66666H14.0668V5.35999L16.364 6.93332L18.7011 5.35999V2.66666H20.5468V6.14666L17.3068 8.47999V12Z" fill="#B7872D"/>
<path fill-rule="evenodd" clip-rule="evenodd" d="M23.9016 6.33442V10.0023L24.7843 9.96841L25.667 9.93463L25.6667 16.0261L25.6665 22.1176H24.7841H23.9016V25.7255V29.3333H29.6634H35.4251V25.7778V22.2222H34.5946H33.7641V21.0719V19.9216H36.6709H39.5777V16.4183V12.915L36.645 12.9152L33.7122 12.9153L33.7434 11.3989L33.7748 9.88234H35.3785H36.9824V10.7189V11.5555H40.9792H44.9761V7.1111V2.66666H34.4389H23.9016V6.33442ZM45.8067 6.2745V9.88234H46.741H47.6753V15.9959V22.1095L46.7669 22.1397L45.8586 22.1699L45.8313 25.7516L45.804 29.3333H51.6203H57.4367L57.4093 25.7516L57.382 22.1699H56.5254H55.6688L55.6689 16.0261L55.6691 9.88234H56.5515H57.434V6.2745V2.66666H51.6203H45.8067V6.2745ZM58.2645 6.2745V9.88234H59.095H59.9255L59.9281 17.0196L59.9307 24.1569L62.3784 26.7451L64.8261 29.3333H69.6356H74.4449L76.8364 26.7974L79.2278 24.2614L79.2315 17.0719L79.2351 9.88234H80.1176H81V6.2745V2.66666H75.4978H69.9956V6.2745V9.88234H70.6185H71.2414V16.0523V22.2222H69.6322H68.0231V16.0523V9.88234H68.5941H69.1651V6.2745V2.66666H63.7148H58.2645V6.2745ZM24.7322 6.2745V9.04574H25.6665H26.6008V16.0523V23.0588H25.6665H24.7322V25.7778V28.4967H29.6115H34.4908V25.7778V23.0588H33.6603H32.8297V21.0196V18.9804H35.7366H38.6434L38.6435 16.3921V13.8039L35.7367 13.8332L32.8297 13.8626V11.4541V9.04574H35.3732H37.9167V9.88234V10.7189H40.9792H44.0418V7.1111V3.50326H34.387H24.7322V6.2745ZM46.741 6.2745V9.04574H47.6234H48.5058V16.0523V23.0588H47.6234H46.741V25.7778V28.4967H51.6203H56.4996V25.7778V23.0588H55.6172H54.7348V16.0523V9.04574H55.6172H56.4996V6.2745V3.50326H51.6203H46.741V6.2745ZM59.095 6.2745V9.04574H59.9774H60.8599L60.8613 16.3921L60.8628 23.7386L63.1088 26.1176L65.3547 28.4967H69.6279H73.9009L76.1497 26.1176L78.3984 23.7386L78.4015 16.3921L78.4046 9.04574H79.2871H80.1695V6.2745V3.50326H75.6016H71.0337V6.2745V9.04574H71.6047H72.1757L72.1724 15.7647L72.1692 22.4837L71.9178 22.7712L71.6666 23.0588H69.6322H67.5979L67.3466 22.7712L67.0953 22.4837L67.0921 15.7647L67.0888 9.04574H67.6078H68.1269V6.2745V3.50326H63.611H59.095V6.2745Z" fill="#B7872D"/>
<path fill-rule="evenodd" clip-rule="evenodd" d="M24.738 6.28085V9.05205H25.6724H26.6067V16.0585V23.0649H25.6724H24.738V25.7838V28.5027H29.6173H34.4966V25.7838V23.0649H33.6661H32.8356V21.0257V18.9865H35.7424H38.6492L38.6493 16.3983V13.8101L35.7425 13.8394L32.8356 13.8688V11.4604V9.05205H35.3791H37.9225V9.88864V10.7252H40.9851H44.0476V7.11743V3.50964H34.3928H24.738V6.28085ZM46.7468 6.28085V9.05205H47.6292H48.5116V16.0585V23.0649H47.6292H46.7468V25.7838V28.5027H51.6261H56.5054V25.7838V23.0649H55.6229H54.7405V16.0585V9.05205H55.6229H56.5054V6.28085V3.50964H51.6261H46.7468V6.28085ZM59.1007 6.28085V9.05205H59.9832H60.8656L60.867 16.3983L60.8685 23.7446L63.1145 26.1237L65.3605 28.5027H69.6336H73.9066L76.1553 26.1237L78.4041 23.7446L78.4072 16.3983L78.4103 9.05205H79.2927H80.1752V6.28085V3.50964H75.6073H71.0394V6.28085V9.05205H71.6104H72.1814L72.1781 15.7709L72.1749 22.4898L71.9235 22.7773L71.6723 23.0649H69.6379H67.6036L67.3524 22.7773L67.101 22.4898L67.0978 15.7709L67.0945 9.05205H67.6136H68.1326V6.28085V3.50964H63.6167H59.1007V6.28085Z" fill="#091F3F"/>
</g>
<defs>
<clipPath id="clip0_29752_583">
<rect width="81" height="32" fill="white"/>
</clipPath>
</defs>
</svg>
